<svg xmlns="http://www.w3.org/2000/svg" xmlns:xlink="http://www.w3.org/1999/xlink" contentStyleType="text/css" data-diagram-type="ACTIVITY" height="1671px" preserveAspectRatio="none" style="width:3229px;height:1671px;background:#FFFFFF;" version="1.1" viewBox="0 0 3229 1671" width="3229px" zoomAndPan="magnify"><title>&#1055;&#1088;&#1086;&#1094;&#1077;&#1089;&#1089; &#1086;&#1090;&#1087;&#1088;&#1072;&#1074;&#1082;&#1080; &#1086;&#1090;&#1079;&#1099;&#1074;&#1072; &#1087;&#1086;&#1083;&#1100;&#1079;&#1086;&#1074;&#1072;&#1090;&#1077;&#1083;&#1077;&#1084;</title><defs/><g><g class="title" data-source-line="5"><text fill="#000000" font-family="'Segoe UI'" font-size="14" font-weight="bold" lengthAdjust="spacing" textLength="306.3252" x="1460.0206" y="33.5352">&#1055;&#1088;&#1086;&#1094;&#1077;&#1089;&#1089; &#1086;&#1090;&#1087;&#1088;&#1072;&#1074;&#1082;&#1080; &#1086;&#1090;&#1079;&#1099;&#1074;&#1072; &#1087;&#1086;&#1083;&#1100;&#1079;&#1086;&#1074;&#1072;&#1090;&#1077;&#1083;&#1077;&#1084;</text></g><rect fill="none" height="11.7773" style="stroke:none;stroke-width:1;" width="3196.3665" x="15" y="48.4883"/><ellipse cx="570.7393" cy="75.2656" fill="#222222" rx="10" ry="10" style="stroke:#222222;stroke-width:1;"/><rect fill="#F1F1F1" height="31.7773" rx="12.5" ry="12.5" style="stroke:#181818;stroke-width:0.5;" width="190.1172" x="475.6807" y="105.2656"/><text fill="#000000" font-family="'Segoe UI'" font-size="10" lengthAdjust="spacing" textLength="170.1172" x="485.6807" y="124.9336">&#1055;&#1088;&#1086;&#1089;&#1084;&#1072;&#1090;&#1088;&#1080;&#1074;&#1072;&#1077;&#1090; &#1087;&#1086;&#1083;&#1091;&#1095;&#1077;&#1085;&#1085;&#1099;&#1081; &#1086;&#1090;&#1074;&#1077;&#1090;</text><rect fill="#F1F1F1" height="31.7773" rx="12.5" ry="12.5" style="stroke:#181818;stroke-width:0.5;" width="152.666" x="494.4063" y="208.8203"/><text fill="#000000" font-family="'Segoe UI'" font-size="10" lengthAdjust="spacing" textLength="132.666" x="504.4063" y="228.4883">&#1053;&#1072;&#1074;&#1086;&#1076;&#1080;&#1090; &#1082;&#1091;&#1088;&#1089;&#1086;&#1088; &#1085;&#1072; &#1079;&#1074;&#1077;&#1079;&#1076;&#1099;</text><rect fill="#F1F1F1" height="31.7773" rx="12.5" ry="12.5" style="stroke:#181818;stroke-width:0.5;" width="220.5566" x="460.4609" y="312.375"/><text fill="#000000" font-family="'Segoe UI'" font-size="10" lengthAdjust="spacing" textLength="200.5566" x="470.4609" y="332.043">&#1050;&#1083;&#1080;&#1082;&#1072;&#1077;&#1090; &#1085;&#1072; &#1079;&#1074;&#1077;&#1079;&#1076;&#1091; &#1076;&#1083;&#1103; &#1074;&#1099;&#1073;&#1086;&#1088;&#1072; &#1088;&#1077;&#1081;&#1090;&#1080;&#1085;&#1075;&#1072;</text><polygon fill="#F1F1F1" points="496.0933,467.707,645.3853,467.707,657.3853,479.707,645.3853,491.707,496.0933,491.707,484.0933,479.707,496.0933,467.707" style="stroke:#181818;stroke-width:0.5;"/><text fill="#000000" font-family="'Segoe UI'" font-size="10" lengthAdjust="spacing" textLength="149.292" x="496.0933" y="483.4863">&#1061;&#1086;&#1095;&#1077;&#1090; &#1086;&#1089;&#1090;&#1072;&#1074;&#1080;&#1090;&#1100; &#1082;&#1086;&#1084;&#1084;&#1077;&#1085;&#1090;&#1072;&#1088;&#1080;&#1081;?</text><text fill="#000000" font-family="'Segoe UI'" font-size="10" lengthAdjust="spacing" textLength="15.8936" x="468.1997" y="477.5977">yes</text><text fill="#000000" font-family="'Segoe UI'" font-size="10" lengthAdjust="spacing" textLength="12.3486" x="657.3853" y="477.5977">no</text><rect fill="#F1F1F1" height="31.7773" rx="12.5" ry="12.5" style="stroke:#181818;stroke-width:0.5;" width="125.6396" x="411.2734" y="501.707"/><text fill="#000000" font-family="'Segoe UI'" font-size="10" lengthAdjust="spacing" textLength="105.6396" x="421.2734" y="521.375">&#1042;&#1074;&#1086;&#1076;&#1080;&#1090; &#1082;&#1086;&#1084;&#1084;&#1077;&#1085;&#1090;&#1072;&#1088;&#1080;&#1081;</text><rect fill="#F1F1F1" height="31.7773" rx="12.5" ry="12.5" style="stroke:#181818;stroke-width:0.5;" width="148.75" x="593.0103" y="501.707"/><text fill="#000000" font-family="'Segoe UI'" font-size="10" lengthAdjust="spacing" textLength="128.75" x="603.0103" y="521.375">&#1055;&#1088;&#1086;&#1087;&#1091;&#1089;&#1082;&#1072;&#1077;&#1090; &#1082;&#1086;&#1084;&#1084;&#1077;&#1085;&#1090;&#1072;&#1088;&#1080;&#1081;</text><polygon fill="#F1F1F1" points="570.7393,539.4844,582.7393,551.4844,570.7393,563.4844,558.7393,551.4844,570.7393,539.4844" style="stroke:#181818;stroke-width:0.5;"/><rect fill="#F1F1F1" height="31.7773" rx="12.5" ry="12.5" style="stroke:#181818;stroke-width:0.5;" width="174.0186" x="483.73" y="583.4844"/><text fill="#000000" font-family="'Segoe UI'" font-size="10" lengthAdjust="spacing" textLength="154.0186" x="493.73" y="603.1523">&#1053;&#1072;&#1078;&#1080;&#1084;&#1072;&#1077;&#1090; &#1082;&#1085;&#1086;&#1087;&#1082;&#1091; &#171;&#1054;&#1090;&#1087;&#1088;&#1072;&#1074;&#1080;&#1090;&#1100;&#187;</text><rect fill="#F1F1F1" height="31.7773" rx="12.5" ry="12.5" style="stroke:#181818;stroke-width:0.5;" width="181.416" x="21" y="1523.3672"/><text fill="#000000" font-family="'Segoe UI'" font-size="10" lengthAdjust="spacing" textLength="161.416" x="31" y="1543.0352">&#1042;&#1080;&#1076;&#1080;&#1090; &#1087;&#1086;&#1076;&#1090;&#1074;&#1077;&#1088;&#1078;&#1076;&#1077;&#1085;&#1080;&#1077; &#1086;&#1090;&#1087;&#1088;&#1072;&#1074;&#1082;&#1080;</text><ellipse cx="111.708" cy="1585.1445" fill="none" rx="10" ry="10" style="stroke:#222222;stroke-width:1.5;"/><line style="stroke:#222222;stroke-width:2.5;" x1="105.5208" x2="117.8952" y1="1578.9573" y2="1591.3317"/><line style="stroke:#222222;stroke-width:2.5;" x1="117.8952" x2="105.5208" y1="1578.9573" y2="1591.3317"/><rect fill="#F1F1F1" height="31.7773" rx="12.5" ry="12.5" style="stroke:#181818;stroke-width:0.5;" width="188.8574" x="212.416" y="1199.7031"/><text fill="#000000" font-family="'Segoe UI'" font-size="10" lengthAdjust="spacing" textLength="168.8574" x="222.416" y="1219.3711">&#1042;&#1086;&#1079;&#1074;&#1088;&#1072;&#1097;&#1072;&#1077;&#1090; &#1086;&#1096;&#1080;&#1073;&#1082;&#1091; 409 (Conflict)</text><line style="stroke:#000000;stroke-width:1.5;" x1="15" x2="15" y1="48.4883" y2="1659.1445"/><rect fill="#F1F1F1" height="31.7773" rx="12.5" ry="12.5" style="stroke:#181818;stroke-width:0.5;" width="234.4043" x="751.7603" y="157.043"/><text fill="#000000" font-family="'Segoe UI'" font-size="10" lengthAdjust="spacing" textLength="214.4043" x="761.7603" y="176.7109">&#1054;&#1090;&#1086;&#1073;&#1088;&#1072;&#1078;&#1072;&#1077;&#1090; &#1073;&#1083;&#1086;&#1082; "&#1086;&#1094;&#1077;&#1085;&#1080;&#1090;&#1100; &#1086;&#1090;&#1074;&#1077;&#1090; [5 &#1079;&#1074;&#1077;&#1079;&#1076;]"</text><rect fill="#F1F1F1" height="31.7773" rx="12.5" ry="12.5" style="stroke:#181818;stroke-width:0.5;" width="205.332" x="766.2964" y="260.5977"/><text fill="#000000" font-family="'Segoe UI'" font-size="10" lengthAdjust="spacing" textLength="185.332" x="776.2964" y="280.2656">&#1055;&#1086;&#1076;&#1089;&#1074;&#1077;&#1095;&#1080;&#1074;&#1072;&#1077;&#1090; &#1079;&#1074;&#1077;&#1079;&#1076;&#1099; &#1087;&#1088;&#1080; &#1085;&#1072;&#1074;&#1077;&#1076;&#1077;&#1085;&#1080;&#1080;</text><rect fill="#F1F1F1" height="31.7773" rx="12.5" ry="12.5" style="stroke:#181818;stroke-width:0.5;" width="175.5078" x="781.2085" y="364.1523"/><text fill="#000000" font-family="'Segoe UI'" font-size="10" lengthAdjust="spacing" textLength="155.5078" x="791.2085" y="383.8203">&#1060;&#1080;&#1082;&#1089;&#1080;&#1088;&#1091;&#1077;&#1090; &#1074;&#1099;&#1073;&#1088;&#1072;&#1085;&#1085;&#1099;&#1081; &#1088;&#1077;&#1081;&#1090;&#1080;&#1085;&#1075;</text><rect fill="#F1F1F1" height="31.7773" rx="12.5" ry="12.5" style="stroke:#181818;stroke-width:0.5;" width="216.8164" x="760.5542" y="415.9297"/><text fill="#000000" font-family="'Segoe UI'" font-size="10" lengthAdjust="spacing" textLength="196.8164" x="770.5542" y="435.5977">&#1055;&#1086;&#1082;&#1072;&#1079;&#1099;&#1074;&#1072;&#1077;&#1090; &#1073;&#1083;&#1086;&#1082; &#1089; &#1087;&#1086;&#1083;&#1077;&#1084; &#1082;&#1086;&#1084;&#1084;&#1077;&#1085;&#1090;&#1072;&#1088;&#1080;&#1103;</text><line style="stroke:#000000;stroke-width:1.5;" x1="745.7603" x2="745.7603" y1="48.4883" y2="1659.1445"/><rect fill="#F1F1F1" height="31.7773" rx="12.5" ry="12.5" style="stroke:#181818;stroke-width:0.5;" width="195.8936" x="1833.7538" y="635.2617"/><text fill="#000000" font-family="'Segoe UI'" font-size="10" lengthAdjust="spacing" textLength="175.8936" x="1843.7538" y="654.9297">&#1060;&#1086;&#1088;&#1084;&#1080;&#1088;&#1091;&#1077;&#1090; JSON &#1089; &#1076;&#1072;&#1085;&#1085;&#1099;&#1084;&#1080; &#1086;&#1090;&#1079;&#1099;&#1074;&#1072;</text><rect fill="#F1F1F1" height="31.7773" rx="12.5" ry="12.5" style="stroke:#181818;stroke-width:0.5;" width="196.4746" x="1833.4633" y="687.0391"/><text fill="#000000" font-family="'Segoe UI'" font-size="10" lengthAdjust="spacing" textLength="176.4746" x="1843.4633" y="706.707">&#1054;&#1090;&#1087;&#1088;&#1072;&#1074;&#1083;&#1103;&#1077;&#1090; POST &#1079;&#1072;&#1087;&#1088;&#1086;&#1089; &#1085;&#1072; &#1073;&#1101;&#1082;&#1077;&#1085;&#1076;</text><rect fill="#F1F1F1" height="31.7773" rx="12.5" ry="12.5" style="stroke:#181818;stroke-width:0.5;" width="133.7061" x="1049.7754" y="1419.8125"/><text fill="#000000" font-family="'Segoe UI'" font-size="10" lengthAdjust="spacing" textLength="113.7061" x="1059.7754" y="1439.4805">&#1057;&#1082;&#1088;&#1099;&#1074;&#1072;&#1077;&#1090; &#1073;&#1083;&#1086;&#1082; &#1086;&#1094;&#1077;&#1085;&#1082;&#1080;</text><rect fill="#F1F1F1" height="31.7773" rx="12.5" ry="12.5" style="stroke:#181818;stroke-width:0.5;" width="240.9277" x="996.1646" y="1471.5898"/><text fill="#000000" font-family="'Segoe UI'" font-size="10" lengthAdjust="spacing" textLength="220.9277" x="1006.1646" y="1491.2578">&#1055;&#1086;&#1082;&#1072;&#1079;&#1099;&#1074;&#1072;&#1077;&#1090; &#1089;&#1086;&#1086;&#1073;&#1097;&#1077;&#1085;&#1080;&#1077; &#171;&#1057;&#1087;&#1072;&#1089;&#1080;&#1073;&#1086; &#1079;&#1072; &#1086;&#1090;&#1079;&#1099;&#1074;!&#187;</text><rect fill="#F1F1F1" height="31.7773" rx="12.5" ry="12.5" style="stroke:#181818;stroke-width:0.5;" width="254.1748" x="1247.0923" y="1264.4805"/><text fill="#000000" font-family="'Segoe UI'" font-size="10" lengthAdjust="spacing" textLength="234.1748" x="1257.0923" y="1284.1484">&#1055;&#1086;&#1082;&#1072;&#1079;&#1099;&#1074;&#1072;&#1077;&#1090; &#1089;&#1086;&#1086;&#1073;&#1097;&#1077;&#1085;&#1080;&#1077; "&#1054;&#1090;&#1079;&#1099;&#1074; &#1091;&#1078;&#1077; &#1086;&#1090;&#1087;&#1088;&#1072;&#1074;&#1083;&#1077;&#1085;"</text><ellipse cx="1374.1797" cy="1327.2578" fill="none" rx="11" ry="11" style="stroke:#222222;stroke-width:1;"/><ellipse cx="1374.1797" cy="1327.2578" fill="#222222" rx="6" ry="6" style="stroke:#222222;stroke-width:1;"/><rect fill="#F1F1F1" height="31.7773" rx="12.5" ry="12.5" style="stroke:#181818;stroke-width:0.5;" width="199.7803" x="1549.7119" y="1090.9258"/><text fill="#000000" font-family="'Segoe UI'" font-size="10" lengthAdjust="spacing" textLength="179.7803" x="1559.7119" y="1110.5938">&#1042;&#1086;&#1079;&#1074;&#1088;&#1072;&#1097;&#1072;&#1077;&#1090; &#1086;&#1096;&#1080;&#1073;&#1082;&#1091; 429 (Rate Limit)</text><rect fill="#F1F1F1" height="31.7773" rx="12.5" ry="12.5" style="stroke:#181818;stroke-width:0.5;" width="276.6699" x="1511.2671" y="1155.7031"/><text fill="#000000" font-family="'Segoe UI'" font-size="10" lengthAdjust="spacing" textLength="256.6699" x="1521.2671" y="1175.3711">&#1055;&#1086;&#1082;&#1072;&#1079;&#1099;&#1074;&#1072;&#1077;&#1090; &#1089;&#1086;&#1086;&#1073;&#1097;&#1077;&#1085;&#1080;&#1077; "&#1057;&#1083;&#1080;&#1096;&#1082;&#1086;&#1084; &#1084;&#1085;&#1086;&#1075;&#1086; &#1079;&#1072;&#1087;&#1088;&#1086;&#1089;&#1086;&#1074;"</text><ellipse cx="1649.6021" cy="1233.4805" fill="none" rx="11" ry="11" style="stroke:#222222;stroke-width:1;"/><ellipse cx="1649.6021" cy="1233.4805" fill="#222222" rx="6" ry="6" style="stroke:#222222;stroke-width:1;"/><rect fill="#F1F1F1" height="31.7773" rx="12.5" ry="12.5" style="stroke:#181818;stroke-width:0.5;" width="251.123" x="1800.6128" y="982.1484"/><text fill="#000000" font-family="'Segoe UI'" font-size="10" lengthAdjust="spacing" textLength="231.123" x="1810.6128" y="1001.8164">&#1042;&#1086;&#1079;&#1074;&#1088;&#1072;&#1097;&#1072;&#1077;&#1090; &#1086;&#1096;&#1080;&#1073;&#1082;&#1091; 400/422 (Validation Error)</text><rect fill="#F1F1F1" height="31.7773" rx="12.5" ry="12.5" style="stroke:#181818;stroke-width:0.5;" width="256.4746" x="1797.937" y="1046.9258"/><text fill="#000000" font-family="'Segoe UI'" font-size="10" lengthAdjust="spacing" textLength="236.4746" x="1807.937" y="1066.5938">&#1055;&#1086;&#1082;&#1072;&#1079;&#1099;&#1074;&#1072;&#1077;&#1090; &#1089;&#1086;&#1086;&#1073;&#1097;&#1077;&#1085;&#1080;&#1103; &#1086;&#1073; &#1086;&#1096;&#1080;&#1073;&#1082;&#1072;&#1093; &#1074;&#1072;&#1083;&#1080;&#1076;&#1072;&#1094;&#1080;&#1080;</text><ellipse cx="1926.1743" cy="1124.7031" fill="none" rx="11" ry="11" style="stroke:#222222;stroke-width:1;"/><ellipse cx="1926.1743" cy="1124.7031" fill="#222222" rx="6" ry="6" style="stroke:#222222;stroke-width:1;"/><rect fill="#F1F1F1" height="31.7773" rx="12.5" ry="12.5" style="stroke:#181818;stroke-width:0.5;" width="216.8018" x="2064.4116" y="886.3711"/><text fill="#000000" font-family="'Segoe UI'" font-size="10" lengthAdjust="spacing" textLength="196.8018" x="2074.4116" y="906.0391">&#1042;&#1086;&#1079;&#1074;&#1088;&#1072;&#1097;&#1072;&#1077;&#1090; &#1086;&#1096;&#1080;&#1073;&#1082;&#1091; 401 (Unauthorized)</text><rect fill="#F1F1F1" height="31.7773" rx="12.5" ry="12.5" style="stroke:#181818;stroke-width:0.5;" width="198.8867" x="2073.3691" y="938.1484"/><text fill="#000000" font-family="'Segoe UI'" font-size="10" lengthAdjust="spacing" textLength="178.8867" x="2083.3691" y="957.8164">&#1055;&#1077;&#1088;&#1077;&#1085;&#1072;&#1087;&#1088;&#1072;&#1074;&#1083;&#1103;&#1077;&#1090; &#1085;&#1072; &#1089;&#1090;&#1088;&#1072;&#1085;&#1080;&#1094;&#1091; &#1074;&#1093;&#1086;&#1076;&#1072;</text><ellipse cx="2172.8125" cy="1015.9258" fill="none" rx="11" ry="11" style="stroke:#222222;stroke-width:1;"/><ellipse cx="2172.8125" cy="1015.9258" fill="#222222" rx="6" ry="6" style="stroke:#222222;stroke-width:1;"/><line style="stroke:#000000;stroke-width:1.5;" x1="990.1646" x2="990.1646" y1="48.4883" y2="1659.1445"/><rect fill="#F1F1F1" height="31.7773" rx="12.5" ry="12.5" style="stroke:#181818;stroke-width:0.5;" width="204.8877" x="2998.6936" y="738.8164"/><text fill="#000000" font-family="'Segoe UI'" font-size="10" lengthAdjust="spacing" textLength="184.8877" x="3008.6936" y="758.4844">&#1055;&#1086;&#1083;&#1091;&#1095;&#1072;&#1077;&#1090; &#1079;&#1072;&#1087;&#1088;&#1086;&#1089; &#1085;&#1072; &#1089;&#1086;&#1079;&#1076;&#1072;&#1085;&#1080;&#1077; &#1086;&#1090;&#1079;&#1099;&#1074;&#1072;</text><rect fill="#F1F1F1" height="31.7773" rx="12.5" ry="12.5" style="stroke:#181818;stroke-width:0.5;" width="211.2939" x="2995.4905" y="790.5938"/><text fill="#000000" font-family="'Segoe UI'" font-size="10" lengthAdjust="spacing" textLength="191.2939" x="3005.4905" y="810.2617">&#1055;&#1088;&#1086;&#1074;&#1077;&#1088;&#1103;&#1077;&#1090; &#1072;&#1074;&#1090;&#1086;&#1088;&#1080;&#1079;&#1072;&#1094;&#1080;&#1102; &#1087;&#1086;&#1083;&#1100;&#1079;&#1086;&#1074;&#1072;&#1090;&#1077;&#1083;&#1103;</text><polygon fill="#F1F1F1" points="3032.5095,842.3711,3169.7654,842.3711,3181.7654,854.3711,3169.7654,866.3711,3032.5095,866.3711,3020.5095,854.3711,3032.5095,842.3711" style="stroke:#181818;stroke-width:0.5;"/><text fill="#000000" font-family="'Segoe UI'" font-size="10" lengthAdjust="spacing" textLength="137.2559" x="3032.5095" y="858.1504">&#1055;&#1086;&#1083;&#1100;&#1079;&#1086;&#1074;&#1072;&#1090;&#1077;&#1083;&#1100; &#1072;&#1074;&#1090;&#1086;&#1088;&#1080;&#1079;&#1086;&#1074;&#1072;&#1085;?</text><text fill="#000000" font-family="'Segoe UI'" font-size="10" lengthAdjust="spacing" textLength="15.8936" x="3004.616" y="852.2617">yes</text><text fill="#000000" font-family="'Segoe UI'" font-size="10" lengthAdjust="spacing" textLength="12.3486" x="3181.7654" y="852.2617">no</text><rect fill="#F1F1F1" height="31.7773" rx="12.5" ry="12.5" style="stroke:#181818;stroke-width:0.5;" width="156.3428" x="2829.1477" y="886.3711"/><text fill="#000000" font-family="'Segoe UI'" font-size="10" lengthAdjust="spacing" textLength="136.3428" x="2839.1477" y="906.0391">&#1042;&#1072;&#1083;&#1080;&#1076;&#1080;&#1088;&#1091;&#1077;&#1090; &#1076;&#1072;&#1085;&#1085;&#1099;&#1077; &#1086;&#1090;&#1079;&#1099;&#1074;&#1072;</text><polygon fill="#F1F1F1" points="2862.8269,938.1484,2951.8113,938.1484,2963.8113,950.1484,2951.8113,962.1484,2862.8269,962.1484,2850.8269,950.1484,2862.8269,938.1484" style="stroke:#181818;stroke-width:0.5;"/><text fill="#000000" font-family="'Segoe UI'" font-size="10" lengthAdjust="spacing" textLength="88.9844" x="2862.8269" y="953.9277">&#1044;&#1072;&#1085;&#1085;&#1099;&#1077; &#1074;&#1072;&#1083;&#1080;&#1076;&#1085;&#1099;?</text><text fill="#000000" font-family="'Segoe UI'" font-size="10" lengthAdjust="spacing" textLength="15.8936" x="2834.9333" y="948.0391">yes</text><text fill="#000000" font-family="'Segoe UI'" font-size="10" lengthAdjust="spacing" textLength="12.3486" x="2963.8113" y="948.0391">no</text><rect fill="#F1F1F1" height="31.7773" rx="12.5" ry="12.5" style="stroke:#181818;stroke-width:0.5;" width="119.6436" x="2675.3118" y="982.1484"/><text fill="#000000" font-family="'Segoe UI'" font-size="10" lengthAdjust="spacing" textLength="99.6436" x="2685.3118" y="1001.8164">&#1055;&#1088;&#1086;&#1074;&#1077;&#1088;&#1103;&#1077;&#1090; rate limit</text><polygon fill="#F1F1F1" points="2675.468,1046.9258,2794.7991,1046.9258,2806.7991,1058.9258,2794.7991,1070.9258,2675.468,1070.9258,2663.468,1058.9258,2675.468,1046.9258" style="stroke:#181818;stroke-width:0.5;"/><text fill="#000000" font-family="'Segoe UI'" font-size="10" lengthAdjust="spacing" textLength="119.3311" x="2675.468" y="1062.7051">Rate limit &#1085;&#1077; &#1087;&#1088;&#1077;&#1074;&#1099;&#1096;&#1077;&#1085;?</text><text fill="#000000" font-family="'Segoe UI'" font-size="10" lengthAdjust="spacing" textLength="15.8936" x="2647.5745" y="1056.8164">yes</text><text fill="#000000" font-family="'Segoe UI'" font-size="10" lengthAdjust="spacing" textLength="12.3486" x="2806.7991" y="1056.8164">no</text><rect fill="#F1F1F1" height="31.7773" rx="12.5" ry="12.5" style="stroke:#181818;stroke-width:0.5;" width="216.3037" x="2421.2708" y="1090.9258"/><text fill="#000000" font-family="'Segoe UI'" font-size="10" lengthAdjust="spacing" textLength="196.3037" x="2431.2708" y="1110.5938">&#1055;&#1088;&#1086;&#1074;&#1077;&#1088;&#1103;&#1077;&#1090; &#1076;&#1091;&#1073;&#1083;&#1080;&#1088;&#1086;&#1074;&#1072;&#1085;&#1080;&#1077; &#1087;&#1086; session_id</text><polygon fill="#F1F1F1" points="2481.3269,1155.7031,2577.5183,1155.7031,2589.5183,1167.7031,2577.5183,1179.7031,2481.3269,1179.7031,2469.3269,1167.7031,2481.3269,1155.7031" style="stroke:#181818;stroke-width:0.5;"/><text fill="#000000" font-family="'Segoe UI'" font-size="10" lengthAdjust="spacing" textLength="96.1914" x="2481.3269" y="1171.4824">&#1044;&#1091;&#1073;&#1083;&#1080;&#1088;&#1086;&#1074;&#1072;&#1085;&#1080;&#1103; &#1085;&#1077;&#1090;?</text><text fill="#000000" font-family="'Segoe UI'" font-size="10" lengthAdjust="spacing" textLength="15.8936" x="2453.4333" y="1165.5938">yes</text><text fill="#000000" font-family="'Segoe UI'" font-size="10" lengthAdjust="spacing" textLength="12.3486" x="2589.5183" y="1165.5938">no</text><rect fill="#F1F1F1" height="31.7773" rx="12.5" ry="12.5" style="stroke:#181818;stroke-width:0.5;" width="208.8672" x="2291.2134" y="1199.7031"/><text fill="#000000" font-family="'Segoe UI'" font-size="10" lengthAdjust="spacing" textLength="188.8672" x="2301.2134" y="1219.3711">&#1057;&#1086;&#1079;&#1076;&#1072;&#1077;&#1090; &#1091;&#1085;&#1080;&#1082;&#1072;&#1083;&#1100;&#1085;&#1099;&#1081; UUID &#1076;&#1083;&#1103; &#1086;&#1090;&#1079;&#1099;&#1074;&#1072;</text><rect fill="#F1F1F1" height="31.7773" rx="12.5" ry="12.5" style="stroke:#181818;stroke-width:0.5;" width="129.5605" x="2330.8667" y="1264.4805"/><text fill="#000000" font-family="'Segoe UI'" font-size="10" lengthAdjust="spacing" textLength="109.5605" x="2340.8667" y="1284.1484">&#1057;&#1086;&#1093;&#1088;&#1072;&#1085;&#1103;&#1077;&#1090; &#1086;&#1090;&#1079;&#1099;&#1074; &#1074; &#1041;&#1044;</text><rect fill="#F1F1F1" height="31.7773" rx="12.5" ry="12.5" style="stroke:#181818;stroke-width:0.5;" width="155.6787" x="2317.8076" y="1316.2578"/><text fill="#000000" font-family="'Segoe UI'" font-size="10" lengthAdjust="spacing" textLength="135.6787" x="2327.8076" y="1335.9258">&#1047;&#1072;&#1087;&#1080;&#1089;&#1099;&#1074;&#1072;&#1077;&#1090; &#1083;&#1086;&#1075; &#1076;&#1083;&#1103; &#1072;&#1091;&#1076;&#1080;&#1090;&#1072;</text><rect fill="#F1F1F1" height="31.7773" rx="12.5" ry="12.5" style="stroke:#181818;stroke-width:0.5;" width="190.8447" x="2300.2246" y="1368.0352"/><text fill="#000000" font-family="'Segoe UI'" font-size="10" lengthAdjust="spacing" textLength="170.8447" x="2310.2246" y="1387.7031">&#1042;&#1086;&#1079;&#1074;&#1088;&#1072;&#1097;&#1072;&#1077;&#1090; &#1091;&#1089;&#1087;&#1077;&#1096;&#1085;&#1099;&#1081; &#1086;&#1090;&#1074;&#1077;&#1090; (201)</text><line style="stroke:#000000;stroke-width:1.5;" x1="2285.2134" x2="2285.2134" y1="48.4883" y2="1659.1445"/><line style="stroke:#000000;stroke-width:1.5;" x1="3210.7844" x2="3210.7844" y1="48.4883" y2="1659.1445"/><line style="stroke:#181818;stroke-width:1;" x1="570.7393" x2="570.7393" y1="85.2656" y2="105.2656"/><polygon fill="#181818" points="566.7393,95.2656,570.7393,105.2656,574.7393,95.2656,570.7393,99.2656" style="stroke:#181818;stroke-width:1;"/><line style="stroke:#181818;stroke-width:1;" x1="484.0933" x2="474.0933" y1="479.707" y2="479.707"/><line style="stroke:#181818;stroke-width:1;" x1="474.0933" x2="474.0933" y1="479.707" y2="501.707"/><polygon fill="#181818" points="470.0933,491.707,474.0933,501.707,478.0933,491.707,474.0933,495.707" style="stroke:#181818;stroke-width:1;"/><line style="stroke:#181818;stroke-width:1;" x1="657.3853" x2="667.3853" y1="479.707" y2="479.707"/><line style="stroke:#181818;stroke-width:1;" x1="667.3853" x2="667.3853" y1="479.707" y2="501.707"/><polygon fill="#181818" points="663.3853,491.707,667.3853,501.707,671.3853,491.707,667.3853,495.707" style="stroke:#181818;stroke-width:1;"/><line style="stroke:#181818;stroke-width:1;" x1="474.0933" x2="474.0933" y1="533.4844" y2="551.4844"/><line style="stroke:#181818;stroke-width:1;" x1="474.0933" x2="558.7393" y1="551.4844" y2="551.4844"/><polygon fill="#181818" points="548.7393,547.4844,558.7393,551.4844,548.7393,555.4844,552.7393,551.4844" style="stroke:#181818;stroke-width:1;"/><line style="stroke:#181818;stroke-width:1;" x1="667.3853" x2="667.3853" y1="533.4844" y2="551.4844"/><line style="stroke:#181818;stroke-width:1;" x1="667.3853" x2="582.7393" y1="551.4844" y2="551.4844"/><polygon fill="#181818" points="592.7393,547.4844,582.7393,551.4844,592.7393,555.4844,588.7393,551.4844" style="stroke:#181818;stroke-width:1;"/><line style="stroke:#181818;stroke-width:1;" x1="570.7393" x2="570.7393" y1="563.4844" y2="583.4844"/><polygon fill="#181818" points="566.7393,573.4844,570.7393,583.4844,574.7393,573.4844,570.7393,577.4844" style="stroke:#181818;stroke-width:1;"/><line style="stroke:#181818;stroke-width:1;" x1="111.708" x2="111.708" y1="1555.1445" y2="1575.1445"/><polygon fill="#181818" points="107.708,1565.1445,111.708,1575.1445,115.708,1565.1445,111.708,1569.1445" style="stroke:#181818;stroke-width:1;"/><line style="stroke:#181818;stroke-width:1;" x1="868.9624" x2="868.9624" y1="395.9297" y2="415.9297"/><polygon fill="#181818" points="864.9624,405.9297,868.9624,415.9297,872.9624,405.9297,868.9624,409.9297" style="stroke:#181818;stroke-width:1;"/><line style="stroke:#181818;stroke-width:1;" x1="1931.7006" x2="1931.7006" y1="667.0391" y2="687.0391"/><polygon fill="#181818" points="1927.7006,677.0391,1931.7006,687.0391,1935.7006,677.0391,1931.7006,681.0391" style="stroke:#181818;stroke-width:1;"/><line style="stroke:#181818;stroke-width:1;" x1="1116.6284" x2="1116.6284" y1="1451.5898" y2="1471.5898"/><polygon fill="#181818" points="1112.6284,1461.5898,1116.6284,1471.5898,1120.6284,1461.5898,1116.6284,1465.5898" style="stroke:#181818;stroke-width:1;"/><line style="stroke:#181818;stroke-width:1;" x1="1374.1797" x2="1374.1797" y1="1296.2578" y2="1316.2578"/><polygon fill="#181818" points="1370.1797,1306.2578,1374.1797,1316.2578,1378.1797,1306.2578,1374.1797,1310.2578" style="stroke:#181818;stroke-width:1;"/><line style="stroke:#181818;stroke-width:1;" x1="1649.6021" x2="1649.6021" y1="1122.7031" y2="1155.7031"/><polygon fill="#181818" points="1645.6021,1145.7031,1649.6021,1155.7031,1653.6021,1145.7031,1649.6021,1149.7031" style="stroke:#181818;stroke-width:1;"/><line style="stroke:#181818;stroke-width:1;" x1="1649.6021" x2="1649.6021" y1="1187.4805" y2="1222.4805"/><polygon fill="#181818" points="1645.6021,1212.4805,1649.6021,1222.4805,1653.6021,1212.4805,1649.6021,1216.4805" style="stroke:#181818;stroke-width:1;"/><line style="stroke:#181818;stroke-width:1;" x1="1926.1743" x2="1926.1743" y1="1013.9258" y2="1046.9258"/><polygon fill="#181818" points="1922.1743,1036.9258,1926.1743,1046.9258,1930.1743,1036.9258,1926.1743,1040.9258" style="stroke:#181818;stroke-width:1;"/><line style="stroke:#181818;stroke-width:1;" x1="1926.1743" x2="1926.1743" y1="1078.7031" y2="1113.7031"/><polygon fill="#181818" points="1922.1743,1103.7031,1926.1743,1113.7031,1930.1743,1103.7031,1926.1743,1107.7031" style="stroke:#181818;stroke-width:1;"/><line style="stroke:#181818;stroke-width:1;" x1="2172.8125" x2="2172.8125" y1="918.1484" y2="938.1484"/><polygon fill="#181818" points="2168.8125,928.1484,2172.8125,938.1484,2176.8125,928.1484,2172.8125,932.1484" style="stroke:#181818;stroke-width:1;"/><line style="stroke:#181818;stroke-width:1;" x1="2172.8125" x2="2172.8125" y1="969.9258" y2="1004.9258"/><polygon fill="#181818" points="2168.8125,994.9258,2172.8125,1004.9258,2176.8125,994.9258,2172.8125,998.9258" style="stroke:#181818;stroke-width:1;"/><line style="stroke:#181818;stroke-width:1;" x1="3101.1375" x2="3101.1375" y1="770.5938" y2="790.5938"/><polygon fill="#181818" points="3097.1375,780.5938,3101.1375,790.5938,3105.1375,780.5938,3101.1375,784.5938" style="stroke:#181818;stroke-width:1;"/><line style="stroke:#181818;stroke-width:1;" x1="2395.647" x2="2395.647" y1="1231.4805" y2="1264.4805"/><polygon fill="#181818" points="2391.647,1254.4805,2395.647,1264.4805,2399.647,1254.4805,2395.647,1258.4805" style="stroke:#181818;stroke-width:1;"/><line style="stroke:#181818;stroke-width:1;" x1="2395.647" x2="2395.647" y1="1296.2578" y2="1316.2578"/><polygon fill="#181818" points="2391.647,1306.2578,2395.647,1316.2578,2399.647,1306.2578,2395.647,1310.2578" style="stroke:#181818;stroke-width:1;"/><line style="stroke:#181818;stroke-width:1;" x1="2395.647" x2="2395.647" y1="1348.0352" y2="1368.0352"/><polygon fill="#181818" points="2391.647,1358.0352,2395.647,1368.0352,2399.647,1358.0352,2395.647,1362.0352" style="stroke:#181818;stroke-width:1;"/><line style="stroke:#181818;stroke-width:1;" x1="2469.3269" x2="2395.647" y1="1167.7031" y2="1167.7031"/><line style="stroke:#181818;stroke-width:1;" x1="2395.647" x2="2395.647" y1="1167.7031" y2="1199.7031"/><polygon fill="#181818" points="2391.647,1189.7031,2395.647,1199.7031,2399.647,1189.7031,2395.647,1193.7031" style="stroke:#181818;stroke-width:1;"/><line style="stroke:#181818;stroke-width:1;" x1="2529.4226" x2="2529.4226" y1="1122.7031" y2="1155.7031"/><polygon fill="#181818" points="2525.4226,1145.7031,2529.4226,1155.7031,2533.4226,1145.7031,2529.4226,1149.7031" style="stroke:#181818;stroke-width:1;"/><line style="stroke:#181818;stroke-width:1;" x1="2663.468" x2="2529.4226" y1="1058.9258" y2="1058.9258"/><line style="stroke:#181818;stroke-width:1;" x1="2529.4226" x2="2529.4226" y1="1058.9258" y2="1090.9258"/><polygon fill="#181818" points="2525.4226,1080.9258,2529.4226,1090.9258,2533.4226,1080.9258,2529.4226,1084.9258" style="stroke:#181818;stroke-width:1;"/><line style="stroke:#181818;stroke-width:1;" x1="2735.1335" x2="2735.1335" y1="1013.9258" y2="1046.9258"/><polygon fill="#181818" points="2731.1335,1036.9258,2735.1335,1046.9258,2739.1335,1036.9258,2735.1335,1040.9258" style="stroke:#181818;stroke-width:1;"/><line style="stroke:#181818;stroke-width:1;" x1="2850.8269" x2="2735.1335" y1="950.1484" y2="950.1484"/><line style="stroke:#181818;stroke-width:1;" x1="2735.1335" x2="2735.1335" y1="950.1484" y2="982.1484"/><polygon fill="#181818" points="2731.1335,972.1484,2735.1335,982.1484,2739.1335,972.1484,2735.1335,976.1484" style="stroke:#181818;stroke-width:1;"/><line style="stroke:#181818;stroke-width:1;" x1="2907.3191" x2="2907.3191" y1="918.1484" y2="938.1484"/><polygon fill="#181818" points="2903.3191,928.1484,2907.3191,938.1484,2911.3191,928.1484,2907.3191,932.1484" style="stroke:#181818;stroke-width:1;"/><line style="stroke:#181818;stroke-width:1;" x1="3020.5095" x2="2907.3191" y1="854.3711" y2="854.3711"/><line style="stroke:#181818;stroke-width:1;" x1="2907.3191" x2="2907.3191" y1="854.3711" y2="886.3711"/><polygon fill="#181818" points="2903.3191,876.3711,2907.3191,886.3711,2911.3191,876.3711,2907.3191,880.3711" style="stroke:#181818;stroke-width:1;"/><line style="stroke:#181818;stroke-width:1;" x1="3101.1375" x2="3101.1375" y1="822.3711" y2="842.3711"/><polygon fill="#181818" points="3097.1375,832.3711,3101.1375,842.3711,3105.1375,832.3711,3101.1375,836.3711" style="stroke:#181818;stroke-width:1;"/><line style="stroke:#181818;stroke-width:1;" x1="570.7393" x2="570.7393" y1="137.043" y2="142.043"/><line style="stroke:#181818;stroke-width:1;" x1="570.7393" x2="868.9624" y1="142.043" y2="142.043"/><line style="stroke:#181818;stroke-width:1;" x1="868.9624" x2="868.9624" y1="142.043" y2="157.043"/><polygon fill="#181818" points="864.9624,147.043,868.9624,157.043,872.9624,147.043,868.9624,151.043" style="stroke:#181818;stroke-width:1;"/><line style="stroke:#181818;stroke-width:1;" x1="868.9624" x2="868.9624" y1="188.8203" y2="193.8203"/><line style="stroke:#181818;stroke-width:1;" x1="868.9624" x2="570.7393" y1="193.8203" y2="193.8203"/><line style="stroke:#181818;stroke-width:1;" x1="570.7393" x2="570.7393" y1="193.8203" y2="208.8203"/><polygon fill="#181818" points="566.7393,198.8203,570.7393,208.8203,574.7393,198.8203,570.7393,202.8203" style="stroke:#181818;stroke-width:1;"/><line style="stroke:#181818;stroke-width:1;" x1="570.7393" x2="570.7393" y1="240.5977" y2="245.5977"/><line style="stroke:#181818;stroke-width:1;" x1="570.7393" x2="868.9624" y1="245.5977" y2="245.5977"/><line style="stroke:#181818;stroke-width:1;" x1="868.9624" x2="868.9624" y1="245.5977" y2="260.5977"/><polygon fill="#181818" points="864.9624,250.5977,868.9624,260.5977,872.9624,250.5977,868.9624,254.5977" style="stroke:#181818;stroke-width:1;"/><line style="stroke:#181818;stroke-width:1;" x1="868.9624" x2="868.9624" y1="292.375" y2="297.375"/><line style="stroke:#181818;stroke-width:1;" x1="868.9624" x2="570.7393" y1="297.375" y2="297.375"/><line style="stroke:#181818;stroke-width:1;" x1="570.7393" x2="570.7393" y1="297.375" y2="312.375"/><polygon fill="#181818" points="566.7393,302.375,570.7393,312.375,574.7393,302.375,570.7393,306.375" style="stroke:#181818;stroke-width:1;"/><line style="stroke:#181818;stroke-width:1;" x1="570.7393" x2="570.7393" y1="344.1523" y2="349.1523"/><line style="stroke:#181818;stroke-width:1;" x1="570.7393" x2="868.9624" y1="349.1523" y2="349.1523"/><line style="stroke:#181818;stroke-width:1;" x1="868.9624" x2="868.9624" y1="349.1523" y2="364.1523"/><polygon fill="#181818" points="864.9624,354.1523,868.9624,364.1523,872.9624,354.1523,868.9624,358.1523" style="stroke:#181818;stroke-width:1;"/><line style="stroke:#181818;stroke-width:1;" x1="868.9624" x2="868.9624" y1="447.707" y2="452.707"/><line style="stroke:#181818;stroke-width:1;" x1="868.9624" x2="570.7393" y1="452.707" y2="452.707"/><line style="stroke:#181818;stroke-width:1;" x1="570.7393" x2="570.7393" y1="452.707" y2="467.707"/><polygon fill="#181818" points="566.7393,457.707,570.7393,467.707,574.7393,457.707,570.7393,461.707" style="stroke:#181818;stroke-width:1;"/><line style="stroke:#181818;stroke-width:1;" x1="570.7393" x2="570.7393" y1="615.2617" y2="620.2617"/><line style="stroke:#181818;stroke-width:1;" x1="570.7393" x2="1931.7006" y1="620.2617" y2="620.2617"/><line style="stroke:#181818;stroke-width:1;" x1="1931.7006" x2="1931.7006" y1="620.2617" y2="635.2617"/><polygon fill="#181818" points="1927.7006,625.2617,1931.7006,635.2617,1935.7006,625.2617,1931.7006,629.2617" style="stroke:#181818;stroke-width:1;"/><line style="stroke:#181818;stroke-width:1;" x1="1931.7006" x2="1931.7006" y1="718.8164" y2="723.8164"/><line style="stroke:#181818;stroke-width:1;" x1="1931.7006" x2="3101.1375" y1="723.8164" y2="723.8164"/><line style="stroke:#181818;stroke-width:1;" x1="3101.1375" x2="3101.1375" y1="723.8164" y2="738.8164"/><polygon fill="#181818" points="3097.1375,728.8164,3101.1375,738.8164,3105.1375,728.8164,3101.1375,732.8164" style="stroke:#181818;stroke-width:1;"/><line style="stroke:#181818;stroke-width:1;" x1="2395.647" x2="2395.647" y1="1399.8125" y2="1404.8125"/><line style="stroke:#181818;stroke-width:1;" x1="2395.647" x2="1116.6284" y1="1404.8125" y2="1404.8125"/><line style="stroke:#181818;stroke-width:1;" x1="1116.6284" x2="1116.6284" y1="1404.8125" y2="1419.8125"/><polygon fill="#181818" points="1112.6284,1409.8125,1116.6284,1419.8125,1120.6284,1409.8125,1116.6284,1413.8125" style="stroke:#181818;stroke-width:1;"/><line style="stroke:#181818;stroke-width:1;" x1="1116.6284" x2="1116.6284" y1="1503.3672" y2="1508.3672"/><line style="stroke:#181818;stroke-width:1;" x1="1116.6284" x2="111.708" y1="1508.3672" y2="1508.3672"/><line style="stroke:#181818;stroke-width:1;" x1="111.708" x2="111.708" y1="1508.3672" y2="1523.3672"/><polygon fill="#181818" points="107.708,1513.3672,111.708,1523.3672,115.708,1513.3672,111.708,1517.3672" style="stroke:#181818;stroke-width:1;"/><line style="stroke:#181818;stroke-width:1;" x1="306.8447" x2="306.8447" y1="1231.4805" y2="1248.9805"/><line style="stroke:#181818;stroke-width:1;" x1="306.8447" x2="1374.1797" y1="1248.9805" y2="1248.9805"/><line style="stroke:#181818;stroke-width:1;" x1="1374.1797" x2="1374.1797" y1="1248.9805" y2="1264.4805"/><polygon fill="#181818" points="1370.1797,1254.4805,1374.1797,1264.4805,1378.1797,1254.4805,1374.1797,1258.4805" style="stroke:#181818;stroke-width:1;"/><line style="stroke:#181818;stroke-width:1;" x1="2589.5183" x2="2601.5183" y1="1167.7031" y2="1167.7031"/><line style="stroke:#181818;stroke-width:1;" x1="2601.5183" x2="2601.5183" y1="1167.7031" y2="1185.7031"/><line style="stroke:#181818;stroke-width:1;" x1="2601.5183" x2="306.8447" y1="1185.7031" y2="1185.7031"/><line style="stroke:#181818;stroke-width:1;" x1="306.8447" x2="306.8447" y1="1185.7031" y2="1199.7031"/><polygon fill="#181818" points="302.8447,1189.7031,306.8447,1199.7031,310.8447,1189.7031,306.8447,1193.7031" style="stroke:#181818;stroke-width:1;"/><line style="stroke:#181818;stroke-width:1;" x1="2806.7991" x2="2818.7991" y1="1058.9258" y2="1058.9258"/><line style="stroke:#181818;stroke-width:1;" x1="2818.7991" x2="2818.7991" y1="1058.9258" y2="1076.9258"/><line style="stroke:#181818;stroke-width:1;" x1="2818.7991" x2="1649.6021" y1="1076.9258" y2="1076.9258"/><line style="stroke:#181818;stroke-width:1;" x1="1649.6021" x2="1649.6021" y1="1076.9258" y2="1090.9258"/><polygon fill="#181818" points="1645.6021,1080.9258,1649.6021,1090.9258,1653.6021,1080.9258,1649.6021,1084.9258" style="stroke:#181818;stroke-width:1;"/><line style="stroke:#181818;stroke-width:1;" x1="2963.8113" x2="2975.8113" y1="950.1484" y2="950.1484"/><line style="stroke:#181818;stroke-width:1;" x1="2975.8113" x2="2975.8113" y1="950.1484" y2="968.1484"/><line style="stroke:#181818;stroke-width:1;" x1="2975.8113" x2="1926.1743" y1="968.1484" y2="968.1484"/><line style="stroke:#181818;stroke-width:1;" x1="1926.1743" x2="1926.1743" y1="968.1484" y2="982.1484"/><polygon fill="#181818" points="1922.1743,972.1484,1926.1743,982.1484,1930.1743,972.1484,1926.1743,976.1484" style="stroke:#181818;stroke-width:1;"/><line style="stroke:#181818;stroke-width:1;" x1="3181.7654" x2="3193.7654" y1="854.3711" y2="854.3711"/><line style="stroke:#181818;stroke-width:1;" x1="3193.7654" x2="3193.7654" y1="854.3711" y2="872.3711"/><line style="stroke:#181818;stroke-width:1;" x1="3193.7654" x2="2172.8125" y1="872.3711" y2="872.3711"/><line style="stroke:#181818;stroke-width:1;" x1="2172.8125" x2="2172.8125" y1="872.3711" y2="886.3711"/><polygon fill="#181818" points="2168.8125,876.3711,2172.8125,886.3711,2176.8125,876.3711,2172.8125,880.3711" style="stroke:#181818;stroke-width:1;"/><text fill="#000000" font-family="'Segoe UI'" font-size="10" lengthAdjust="spacing" textLength="67.4756" x="346.6423" y="58.1563">&#1055;&#1086;&#1083;&#1100;&#1079;&#1086;&#1074;&#1072;&#1090;&#1077;&#1083;&#1100;</text><text fill="#000000" font-family="'Segoe UI'" font-size="10" lengthAdjust="spacing" textLength="55.1758" x="840.3745" y="58.1563">&#1048;&#1085;&#1090;&#1077;&#1088;&#1092;&#1077;&#1081;&#1089;</text><text fill="#000000" font-family="'Segoe UI'" font-size="10" lengthAdjust="spacing" textLength="43.6133" x="1615.8823" y="58.1563">Frontend</text><text fill="#000000" font-family="'Segoe UI'" font-size="10" lengthAdjust="spacing" textLength="58.7842" x="2718.6068" y="58.1563">Backend API</text><!--SRC=[bLPDRnj56BxlhnZCnJwHHENG-82W42a8jHKXN112IxrfLtLsg_Nc0Ch1JfecLGCLLIKG4bIHuCHbxTZfnh4TgRzWvX_nlE_ChiVhTJ29ivxCn_C-xzSpsthi1q_SoDqL3M_7tMl66s4GttLtFL7PyXw6djZUh3YjiarR_e-UM5sn5hzt7pn-68LxGUDEs0mZyVu6_pXExCTDJyWtgYqdwfaSg8xg20mFv3Mc4jcJGvdgYRVg1VvDXBoM4tcbJkLRV6C2ImDvXR-Hu-pBDsMBwdJVQSLk53lhnbH7ZcWHuvIsmV111doeZd5cBCUmTwbDzsYzJl2_OHgGggsUOjEbwkm3yazCJMIN2LzaO5rmciYXg6Z709Z2tga5ABxvK80dndZslwtKR-I_Bl_WU4nadv24789f6uvCL5i0FR6mr8l5PCb07yU8mh7jlNLQSFHJXkNPldP0fl_5yNTudI9d1hD0wr00wKgz5BA7u7Q9EZRWGUmES70ipsMocFjVX0tkAQOFjGK6uiXd6Pk5gnkNYPAfeDdyKBrnugc245KCH_WTiFs4mg1UtkorloEgycyuSwoHKLrq59jCnaimvUL7DH4_yW9H_S5hrHmXrkMhcUoMdQaxNhFbYMeGwXDSoyZL8MAIntpHoQ3XxvWgki3KQBf_J21KJ-BTFrpCMUyn_tTNvFv6XCO6Xau39MvafU7phNjtEPBzF16ZGj_MJQDas2W3Fdh_tjPNL2C9hqm8XAkcgtu2DIgxFjd_10e2y-BZ-vjP5UjMpQkt042TGKN7X58vc2EZWzVZ6jDKY1UrCeSCWEZRLFsyG72uAZZr2mgZ2CUBSboMzuIxfc_NzJIGHUP2uCE6NzjxUZaA9ef6fiLY-nkviIUQ_guVrtaFFmZvoto1OZdGSZ2WNbCdb99v-783rFBSQAbPodE1a8gMrshvOV2TtwWR3FEbdIixIj8n9kWo1iJXB4ywsGV4sCWH9KZhm_RsvgUv3XKYQy6e8wqgcIlvJa6VN-HhU_-lL7sWrx4LXlJbFBUKW0ptzgobLqouHxRKyvmsYlSQmvEvIqXKrrPMQrE0V60rgEt64Bae4RtyJXgIf4yFb2abDn9TRy_D9J0WcJW3mOIac6ISsyyAqNka6VCK5qke7Oyqay1hlgcqusreLZ-tNtn1c1f30CpOLigRWWsi4_Q2zE_MocrHlHC6Eqt_GRnqc9UCMeNrJzSGYk6Yw0ZTGEFAr6Wh3fyukLiGxpAtbd5gxRPfwI-efMk5RfjpwNyuTCODUgBl707Dfwlat1H4fiUKxDojtAdCfLc7bihHoWUtrjP4zMktwJVS618YFekYCAfPAbPmQZcNM11arp873aUsjFALaDMRSKKxCdinB-74ggXk1-vU_2YCyBhSg1bXdo5Ej0SilMCJJllcDDSSlyLgTNn6RrWzTSIl4Impp54p_1S0]--></g></svg>